<svg id="SvgjsSvg1001" width="288" height="288" xmlns="http://www.w3.org/2000/svg" version="1.1" xmlns:xlink="http://www.w3.org/1999/xlink" xmlns:svgjs="http://svgjs.com/svgjs"><defs id="SvgjsDefs1002"></defs><g id="SvgjsG1008" transform="matrix(1,0,0,1,0,0)"><svg xmlns="http://www.w3.org/2000/svg" viewBox="0 0 24 24" width="288" height="288"><path fill="#ffffff" d="M15,2.25H9A4.756,4.756,0,0,0,4.25,7V20A1.751,1.751,0,0,0,7,21.437l4.859-3.367a.252.252,0,0,1,.285,0L17,21.437A1.75,1.75,0,0,0,19.75,20V7A4.756,4.756,0,0,0,15,2.25ZM18.25,20a.25.25,0,0,1-.393.206L13,16.837a1.758,1.758,0,0,0-1.994,0L6.142,20.2A.25.25,0,0,1,5.75,20V7A3.254,3.254,0,0,1,9,3.75h6A3.254,3.254,0,0,1,18.25,7Z" data-name="bookmark-Regular" class="color41416e svgShape"></path></svg></g></svg>