<svg id="SvgjsSvg1001" width="288" height="288" xmlns="http://www.w3.org/2000/svg" version="1.1" xmlns:xlink="http://www.w3.org/1999/xlink" xmlns:svgjs="http://svgjs.com/svgjs"><defs id="SvgjsDefs1002"></defs><g id="SvgjsG1008" transform="matrix(1,0,0,1,0,0)"><svg xmlns="http://www.w3.org/2000/svg" viewBox="0 0 24 24" width="288" height="288"><path fill="#ffffff" d="M16.75,9.594V7a4.75,4.75,0,0,0-9.5,0V9.594A4.749,4.749,0,0,0,4.25,14v3A4.756,4.756,0,0,0,9,21.75h6A4.756,4.756,0,0,0,19.75,17V14A4.749,4.749,0,0,0,16.75,9.594ZM8.75,7a3.25,3.25,0,0,1,6.5,0V9.275c-.085,0-.164-.025-.25-.025H9c-.086,0-.165.021-.25.025Zm9.5,10A3.254,3.254,0,0,1,15,20.25H9A3.254,3.254,0,0,1,5.75,17V14A3.254,3.254,0,0,1,9,10.75h6A3.254,3.254,0,0,1,18.25,14Zm-5.5-2v1a.75.75,0,0,1-1.5,0V15a.75.75,0,0,1,1.5,0Z" data-name="lock-Regular" class="color41416e svgShape"></path></svg></g></svg>